<?xml version="1.0" encoding="utf-8"?>
<!-- Generator: Adobe Illustrator 24.3.0, SVG Export Plug-In . SVG Version: 6.00 Build 0)  -->
<svg version="1.1" id="Layer_1" xmlns="http://www.w3.org/2000/svg" xmlns:xlink="http://www.w3.org/1999/xlink" x="0px" y="0px"
	 viewBox="0 0 162.2 129" style="enable-background:new 0 0 162.2 129;" xml:space="preserve">
<style type="text/css">
	.st0{fill:#4BB48F;}
	.st1{fill:url(#SVGID_1_);}
	.st2{fill:#12100B;}
	.st3{fill:url(#SVGID_2_);}
	.st4{fill:#FFFFFF;}
	.st5{fill:url(#SVGID_3_);}
	.st6{opacity:0.2;clip-path:url(#SVGID_5_);fill:#415448;}
	.st7{opacity:0.8;clip-path:url(#SVGID_7_);}
	.st8{fill:url(#SVGID_8_);}
	.st9{fill:#C48214;}
	.st10{clip-path:url(#SVGID_10_);fill:#349F79;}
	.st11{fill:url(#SVGID_11_);}
	.st12{clip-path:url(#SVGID_13_);fill:url(#SVGID_14_);}
	.st13{fill:#EA5D0B;}
	.st14{fill:#DB0D15;}
	.st15{fill:url(#SVGID_15_);}
	.st16{fill:url(#SVGID_16_);}
	.st17{fill:#29966D;}
	.st18{clip-path:url(#SVGID_18_);fill:#4BB48F;}
	.st19{fill:#2D2A27;}
	.st20{clip-path:url(#SVGID_20_);fill:url(#SVGID_21_);}
	.st21{clip-path:url(#SVGID_20_);fill:url(#SVGID_22_);}
	.st22{fill:url(#SVGID_23_);}
	.st23{fill:url(#SVGID_24_);}
	.st24{fill:url(#SVGID_25_);}
	.st25{opacity:0.32;}
	.st26{clip-path:url(#SVGID_27_);}
	.st27{fill:url(#SVGID_28_);}
	.st28{display:none;}
	.st29{display:inline;fill:#FFFFFF;}
	.st30{fill:#302D2A;}
	.st31{fill:url(#SVGID_29_);}
	.st32{fill:url(#SVGID_30_);}
	.st33{fill:url(#SVGID_31_);}
	.st34{clip-path:url(#SVGID_33_);fill:#133736;}
	.st35{fill:#D4D3D2;}
	.st36{fill:url(#SVGID_34_);}
	.st37{fill:url(#SVGID_35_);}
	.st38{fill:url(#SVGID_36_);}
	.st39{fill:url(#SVGID_37_);}
	.st40{fill:#00D597;}
	.st41{fill:url(#SVGID_38_);}
	.st42{fill:#00B580;}
	.st43{fill:url(#SVGID_39_);}
	.st44{fill:url(#SVGID_40_);}
	.st45{fill:#475253;}
	.st46{clip-path:url(#SVGID_42_);fill:#3A4444;}
	.st47{clip-path:url(#SVGID_42_);}
	.st48{fill:#F8D327;}
	.st49{fill:#BB0121;}
	.st50{fill:url(#SVGID_43_);}
	.st51{clip-path:url(#SVGID_45_);fill:#F8D327;}
	.st52{opacity:0.39;}
	.st53{fill:url(#SVGID_46_);}
	.st54{fill:url(#SVGID_47_);}
	.st55{fill:#2B2A26;}
	.st56{fill:#800016;}
	.st57{fill:#A20321;}
	.st58{fill:#31A17C;}
	.st59{fill:#2A956E;}
</style>
<g>
	<g>
		<path class="st9" d="M135.8,70.7c0,0,2.6,19.9-2.2,22.3c-4.3-1.6-4.3-1.2-5.4-0.7c-1,0.5-4.3,1.9-4,3.4c0.3,1.5,7.2,7.6,11.6,6.8
			c-0.5,5.6-7.9,14.2-9.6,14.2c-1.7-0.1-6.8-15.8-11.8-16.3s-10.3-1.3-10.4,4.5c0,5.7,6.2,12.8,6.2,12.8s-8.8,5.7-17.9,5.9
			c-0.5-9.6-1.1-11.6-4.7-14.2s-15.5-3.1-16.1,4.1c-0.6,7.3,0.6,10.1,0.6,10.1s-3.6,2.9-19.8-1.4c4.3-10.1,5.5-10,4.5-15.9
			c-1-5.9-9.6-7.5-14.6-1.7s-4.4,10.1-4.4,10.1s-9.6-1.4-15.1-11.9c10.7-5.8,8.8-1.7,13.6-7.8c0,0,9-11.5-0.9-9.8
			c-9.9,1.7-10.1,6.5-10.1,6.5s-4.7-8.5-0.1-20.2c9.7,4.2,12.3,4.2,12.3,4.2s17,27.6,29.7,24.6c0,0,38.1,2.8,44.7-2.9
			c6.7-5.7,23.8-26.6,23.8-26.6L135.8,70.7z"/>
	</g>
	<path class="st0" d="M159.4,71.3c-0.9,0.7-2.8,1.3-1.9-0.3c0.2-0.3,3.7-3,3.8-5.1c0.1-2.9-3.4-3.5-4.6-0.5c-0.8,2-2.8,3.3-3.1,3.4
		c-0.3,0.2-1.1,0-1-0.9c0.1-1.1,2.3-3.4,2.4-7c0.1-3.7-4.7-4.3-5.6-4.3c-1,0-1.8,0.1-2.4,0.2c-4.9,1.2-3.4,5.2,1.7,4.7
		c1.2,0.2,1.2,1,1.2,1.7c0,1.1-0.6,2-1.5,2.9c-1.3,1.4-5.8,1.7-6.4-1c-0.1-0.4,0.6-2.7,0.6-2.7c0.2-2.2-2.5-2.1-3.4-1.1
		c-0.6,0.7-1,1.3-1,2.3c0,2,2,3.8,1.7,5.1c-0.5,2.4-6.7,3.3-9.8,3.6c-1.9,0.1-3.7,0.1-5.4,0c0.1-3.5,0.1-7.5,0.1-11.8
		C125,34.2,117.2,0,80.6,0C44.2,0,36.1,34.2,36.1,59.6c0,4.1,0,7.7,0,11.1c-8.6,0.4-12.6,2.4-14.2,1.6c-0.5-0.2-0.5-1.1-0.2-1.6
		c1.9-4.2-0.1-5.3-1-5.8c-0.8-0.5-6.5-2.1-6.8,2c-0.1,1,0.7,1.5,2.1,1.5c1.4,0,1.4,1.1,1.2,2.2c-0.3,2.1-3,2.8-4.1,2.7
		C8.4,72.6,7,69.5,7,68.1c0-1.1,1.2-2.2,2.7-2.2c0.5,0,2.4,0.6,3.1-0.3c1.9-2.5-4.2-5.3-8.5-2C3.4,64.3,0,68.3,4.1,73
		c0.3,0.4,0.9,0.9,1.9,1.5c0.6,0.5,1,0.9,0.9,1.3c-0.1,0.9-1.8-0.2-3-1.1c-1.2-0.9-2.1-1.5-2.6-1.4C0,73.3,0,74.4,0,74.7
		c0,0.6,0.3,1.3,1,2.1c0.7,0.7,1.5,1.4,2.6,1.9c0.7,0.3,1.4,0.7,2.2,1c0.5,0.3,2.1,0.9,2.1,1.4c0,1-0.9,1-1.6,1.2
		c-3.4,0.2-3.6,1.6-3.5,2.1c0.9,2.6,14.3,2.5,18.8,2.3c2.7-0.1,11.1-1.8,12.9-0.5c7.9,5.5-7.1,14.6-11.4,17.7
		c-4.7,3.4-5.5,8.3-3,11.1c6,7,14.9-2.8,17.1-5.4c9.3-10.5,21-10,17.7,3.4c-2.3,9.2-0.5,13.5,2.7,15c3.6,1.7,11.7,2.2,12.7-6.3
		c0.8-7.1,1.4-11.3,4.7-14.1c5.8-4.9,14.1-3.5,16.8,4.1c1,2.8,2.8,13.3,5,15.3c3.3,3,10.9,1.5,12.1-2c1.7-4.8-3.2-12.5-3.5-16.9
		c-0.6-7.5,6.9-8.8,9.6-4.2c7.8,13.1,20.3,16.1,23.1,8.2c2.7-7.6-9.1-8.8-12.4-16.6c-0.7-2.2-0.1-3.7,1.3-4.9
		c4.3-3.2,20.8-5.8,27.3-10.5c2.7-1.5,6.2-4.6,7.3-6.4C163.4,71.2,160.8,69.3,159.4,71.3z"/>
	<g>
		<defs>
			<path id="SVGID_9_" d="M23.8,71.3c0,0,3,11,0,18.4c-3,7.5-1.9,13.9-1.9,13.9s8.6,2.5,12.6,10.9s18.3,9.8,18.3,9.8s6.1-3.6,18.1,1
				c12,4.7,22.6-1,22.6-1s7.8-5.6,16.7-5c8.9,0.6,18.1-1.9,18.1-1.9s5.1-13,9.6-15.4l-1.5-10.5c0,0-3.9-14.8-0.5-22.6
				c0.5-1.1-3.1-5.3-4.9-2.3c-48.7,82.3-89.2,15.7-100.2,4C27.8,67.5,23.8,71.3,23.8,71.3z"/>
		</defs>
		<clipPath id="SVGID_1_">
			<use xlink:href="#SVGID_9_"  style="overflow:visible;"/>
		</clipPath>
		<path style="clip-path:url(#SVGID_1_);fill:#349F79;" d="M159.4,71.3c-0.9,0.7-2.8,1.3-1.9-0.3c0.2-0.3,3.7-3,3.8-5.1
			c0.1-2.9-3.4-3.5-4.6-0.5c-0.8,2-2.8,3.3-3.1,3.4c-0.3,0.2-1.1,0-1-0.9c0.1-1.1,2.3-3.4,2.4-7c0.1-3.7-4.7-4.3-5.6-4.3
			c-1,0-1.8,0.1-2.4,0.2c-4.9,1.2-3.4,5.2,1.7,4.7c1.2,0.2,1.2,1,1.2,1.7c0,1.1-0.6,2-1.5,2.9c-1.3,1.4-5.8,1.7-6.4-1
			c-0.1-0.4,0.6-2.7,0.6-2.7c0.2-2.2-2.5-2.1-3.4-1.1c-0.6,0.7-1,1.3-1,2.3c0,2,2,3.8,1.7,5.1c-0.5,2.4-6.7,3.3-9.8,3.6
			c-1.9,0.1-3.7,0.1-5.4,0c0.1-3.5,0.1-7.5,0.1-11.8C125,34.2,117.2,0,80.6,0C44.2,0,36.1,34.2,36.1,59.6c0,4.1,0,7.7,0,11.1
			c-8.6,0.4-12.6,2.4-14.2,1.6c-0.5-0.2-0.5-1.1-0.2-1.6c1.9-4.2-0.1-5.3-1-5.8c-0.8-0.5-6.5-2.1-6.8,2c-0.1,1,0.7,1.5,2.1,1.5
			c1.4,0,1.4,1.1,1.2,2.2c-0.3,2.1-3,2.8-4.1,2.7C8.4,72.6,7,69.5,7,68.1c0-1.1,1.2-2.2,2.7-2.2c0.5,0,2.4,0.6,3.1-0.3
			c1.9-2.5-4.2-5.3-8.5-2C3.4,64.3,0,68.3,4.1,73c0.3,0.4,0.9,0.9,1.9,1.5c0.6,0.5,1,0.9,0.9,1.3c-0.1,0.9-1.8-0.2-3-1.1
			c-1.2-0.9-2.1-1.5-2.6-1.4C0,73.3,0,74.4,0,74.7c0,0.6,0.3,1.3,1,2.1c0.7,0.7,1.5,1.4,2.6,1.9c0.7,0.3,1.4,0.7,2.2,1
			c0.5,0.3,2.1,0.9,2.1,1.4c0,1-0.9,1-1.6,1.2c-3.4,0.2-3.6,1.6-3.5,2.1c0.9,2.6,14.3,2.5,18.8,2.3c2.7-0.1,11.1-1.8,12.9-0.5
			c7.9,5.5-7.1,14.6-11.4,17.7c-4.7,3.4-5.5,8.3-3,11.1c6,7,14.9-2.8,17.1-5.4c9.3-10.5,21-10,17.7,3.4c-2.3,9.2-0.5,13.5,2.7,15
			c3.6,1.7,11.7,2.2,12.7-6.3c0.8-7.1,1.4-11.3,4.7-14.1c5.8-4.9,14.1-3.5,16.8,4.1c1,2.8,2.8,13.3,5,15.3c3.3,3,10.9,1.5,12.1-2
			c1.7-4.8-3.2-12.5-3.5-16.9c-0.6-7.5,6.9-8.8,9.6-4.2c7.8,13.1,20.3,16.1,23.1,8.2c2.7-7.6-9.1-8.8-12.4-16.6
			c-0.7-2.2-0.1-3.7,1.3-4.9c4.3-3.2,20.8-5.8,27.3-10.5c2.7-1.5,6.2-4.6,7.3-6.4C163.4,71.2,160.8,69.3,159.4,71.3z"/>
	</g>
	<path class="st4" d="M86.8,76.8c-1.1,0-2.1,0.8-2.1,2.3c0,2.7-2.1,3.9-4.1,3.9c-1.1,0-2.1-0.3-2.8-1c-0.8-0.7-1.2-1.7-1.2-3
		c0-1.5-1.1-2.3-2.2-2.3c-0.6,0-1.1,0.2-1.5,0.6c-0.3,0.3-0.7,0.8-0.7,1.7c0,5.4,4.3,8.2,8.5,8.2c4,0,8.2-2.6,8.2-8.2
		C88.9,77.6,87.8,76.8,86.8,76.8z"/>
	<path class="st4" d="M119.8,56c-1-8.8-8.5-15.6-17.5-15.6c-8.1,0-15.1,5.5-17.1,13.3c-3.1-0.7-6.2-0.7-9.3,0.1
		C74,45.9,67,40.3,58.7,40.3c-9,0-16.5,6.8-17.5,15.7c-0.3,0.1-0.6,0.3-0.9,0.5c-0.4,0.4-0.6,0.9-0.6,1.4c0,0.5,0.2,1.5,1.5,1.9
		c1,8.9,8.5,15.7,17.5,15.7c9.7,0,17.6-7.9,17.6-17.6c0-0.2,0-0.4,0-0.6c2.7-0.8,5.6-0.9,8.3-0.2c0,0.3,0,0.5,0,0.8
		c0,9.7,7.9,17.6,17.6,17.6c9,0,16.6-6.8,17.5-15.7c0.8-0.3,1.5-1,1.5-1.9C121.3,57.3,121,56.4,119.8,56z M102.2,71.7
		c-7.4,0-13.5-6.2-13.5-13.7c0-7.6,6-13.7,13.5-13.7c7.4,0,13.5,6.2,13.5,13.7C115.7,65.5,109.7,71.7,102.2,71.7z M58.7,71.7
		c-7.4,0-13.5-6.2-13.5-13.7c0-7.6,6.1-13.7,13.5-13.7c7.4,0,13.5,6.2,13.5,13.7C72.2,65.5,66.2,71.7,58.7,71.7z"/>
	
		<radialGradient id="SVGID_2_" cx="54.2657" cy="76.6951" r="74.5023" gradientTransform="matrix(0.95 0 0 0.95 27.174 3.8938)" gradientUnits="userSpaceOnUse">
		<stop  offset="0" style="stop-color:#FCC62E"/>
		<stop  offset="0.356" style="stop-color:#FCC42C"/>
		<stop  offset="0.5338" style="stop-color:#FABC25"/>
		<stop  offset="0.6722" style="stop-color:#F8AF1A"/>
		<stop  offset="0.7895" style="stop-color:#F49C0A"/>
		<stop  offset="0.8428" style="stop-color:#F29100"/>
	</radialGradient>
	<path class="st3" d="M25.1,71.3c1.1,4.7,3.5,10.6,0.1,20.2c7.1-4.2,9-3.1,9-3.1c4.3,2-4.7,9.1-11.6,14.2
		c5.9-0.6,15.1,11.9,15.1,11.9s0.4-2.8,5.7-7.7c4.6-3.3,11.7-3.2,11,4.7c-0.4,4.7-2.2,10.5-2.2,10.5c6.4-3.2,15.4-2.8,19.8,1.4
		c0.2-2.1-1.3-9.8,4.3-13.1c5.5-3.3,13,1.2,15.9,13.1c4.9-6.7,17.9-5.9,17.9-5.9c-0.4-3.8-7.3-9.4,0.2-12.8c5.8-1.4,6.8,9,15.7,11.9
		c-0.8-4.9,5.4-11.8,9.6-14.2c1.1-0.6-6.3-0.3-8.8-5.5c-2-4.1,3-4.1,6.6-4c-2.7-10.8,3-22.4,2.2-22.3c-0.8,0.2-3.8,1.1-10.9,1.6
		c-4.8,2.6-20.3,27-43.8,27c-25.3,0-45.4-28.9-45.4-28.9"/>
	<g>
		<defs>
			<path id="SVGID_12_" d="M25.1,71.3c1.1,4.7,2.7,6.8-0.7,16.4c9.1-2.6,10.5-0.4,10.5-0.4c4.3,3.4-2.7,9.2-9.7,14.3
				c5.9-0.6,12,9.3,12,9.3s0.7-1.9,5.7-5.5c4.6-3.3,13.7-4.7,11.5,6c-0.9,4.7-1.4,9.2-1.4,9.2c2.8-2.5,18-0.5,18,0.7
				c0.2-2.1-0.4-11,5.2-14.3c5.5-3.3,15.3-4.7,17.1,14.3c2.4-3.9,15.4-4.4,15.4-4.4c-0.3-0.9-7.1-11.8,0.5-15.1
				c5.8-1.4,7.5,10.6,16.4,13.5c-0.8-4.9,9.6-11.9,8.5-12.5c-1.1-0.6-3.9-1-7.1-5.9c-3.2-4.9,3.4-7.7,7-7.5
				c-2.7-10.8,1.8-18.7,1-18.6c-0.8,0.2-3.1,1-10.1,1.4c-4.8,2.6-20.3,27-43.8,27c-25.3,0-45.4-28.9-45.4-28.9"/>
		</defs>
		<clipPath id="SVGID_3_">
			<use xlink:href="#SVGID_12_"  style="overflow:visible;"/>
		</clipPath>
		<linearGradient id="SVGID_5_" gradientUnits="userSpaceOnUse" x1="82.2815" y1="49.2599" x2="82.2815" y2="91.1024">
			<stop  offset="0" style="stop-color:#FCC62E"/>
			<stop  offset="0.3587" style="stop-color:#FCC42D"/>
			<stop  offset="0.5379" style="stop-color:#FABC2B"/>
			<stop  offset="0.6774" style="stop-color:#F8AF27"/>
			<stop  offset="0.7956" style="stop-color:#F49C21"/>
			<stop  offset="0.8449" style="stop-color:#F2921E"/>
		</linearGradient>
		<path style="clip-path:url(#SVGID_3_);fill:url(#SVGID_5_);" d="M131.9,70.3c-6.9-2.9-24.6,32.4-51.4,32.3S37.6,73.7,32.7,69.2
			L131.9,70.3z"/>
	</g>
	<g>
		<path class="st13" d="M79.1,99.1c0,2.6,1.8,4.8,2,5.1c0.3-0.3,2-2.5,2-5.1c0-2.6-1.8-4.8-2-5.1C80.9,94.3,79.1,96.4,79.1,99.1z"/>
		<path class="st13" d="M81.1,115.4c0.3-0.3,2-2.5,2-5.1c0-2.6-1.8-4.8-2-5.1c-0.3,0.3-2,2.5-2,5.1
			C79.1,112.9,80.9,115.1,81.1,115.4z"/>
		<path class="st13" d="M90.4,99.3c-0.4-0.1-3.1-0.5-5.4,0.8c-2.3,1.3-3.3,4-3.4,4.3c0.4,0.1,3.1,0.5,5.4-0.8
			C89.3,102.3,90.2,99.7,90.4,99.3z"/>
		<path class="st13" d="M90.4,110c-0.1-0.4-1.1-3-3.4-4.3c-2.3-1.3-5.1-0.8-5.4-0.8c0.1,0.4,1.1,3,3.4,4.3
			C87.2,110.6,90,110.1,90.4,110z"/>
		<path class="st13" d="M71.8,110c0.4,0.1,3.1,0.5,5.4-0.8c2.3-1.3,3.3-4,3.4-4.3c-0.4-0.1-3.1-0.5-5.4,0.8
			C73,107,72,109.6,71.8,110z"/>
		<path class="st13" d="M71.8,99.3c0.1,0.4,1.1,3,3.4,4.3c2.3,1.3,5.1,0.8,5.4,0.8c-0.1-0.4-1.1-3-3.4-4.3
			C75,98.8,72.2,99.2,71.8,99.3z"/>
		<path class="st14" d="M79.2,97.6c-1.4-1.4-3.1-2.1-3.4-2.2c-0.1,0.3-0.4,2.1,0.2,4l0,0c0.5,0.1,0.9,0.3,1.4,0.6
			c2.5,1.4,3.4,4.4,3.4,4.4c0,0-3.1,0.7-5.6-0.8c-0.5-0.3-0.9-0.6-1.2-0.9l0,0c-1.9,0.5-3.4,1.7-3.6,1.9c0.2,0.2,1.7,1.4,3.6,1.9
			c0.3-0.3,0.7-0.6,1.2-0.9c2.5-1.4,5.5-0.8,5.6-0.8c0,0-1,3-3.4,4.4c-0.4,0.3-0.9,0.4-1.4,0.6c-0.6,1.9-0.2,3.7-0.2,4
			c0.3-0.1,2-0.8,3.4-2.2c-0.1-0.5-0.2-1-0.2-1.5c0-2.9,2.1-5.2,2.1-5.2c0,0,2.1,2.3,2.1,5.2c0,0.5-0.1,1-0.2,1.5
			c1.4,1.4,3.1,2.1,3.4,2.2c0.1-0.3,0.4-2.1-0.2-4c-0.5-0.1-0.9-0.3-1.4-0.6c-2.5-1.4-3.4-4.4-3.5-4.4c0,0,3.1-0.7,5.6,0.8
			c0.5,0.3,0.9,0.6,1.2,0.9l0,0c1.9-0.5,3.4-1.7,3.6-1.9c-0.2-0.2-1.7-1.4-3.6-1.9c-0.3,0.3-0.7,0.6-1.2,0.9
			c-2.5,1.4-5.5,0.8-5.6,0.8c0,0,1-3,3.5-4.4c0.4-0.3,0.9-0.4,1.4-0.6c0.6-1.9,0.2-3.7,0.2-4c-0.3,0.1-2,0.8-3.4,2.2
			c0.1,0.5,0.2,1,0.2,1.5c0,2.9-2.1,5.2-2.1,5.2c0,0-2.1-2.3-2.1-5.2C79,98.5,79.1,98,79.2,97.6z"/>
	</g>
</g>
</svg>
